<?xml version="1.0" encoding="UTF-8" standalone="no"?>
<!DOCTYPE svg PUBLIC "-//W3C//DTD SVG 1.1//EN"
 "http://www.w3.org/Graphics/SVG/1.1/DTD/svg11.dtd">
<!-- Generated by graphviz version 2.40.1 (20161225.0304)
 -->
<!-- Title: a&#45;Fibonacci.cpp.023t.ssa Pages: 1 -->
<svg width="1540pt" height="1412pt"
 viewBox="0.00 0.00 1540.00 1411.60" xmlns="http://www.w3.org/2000/svg" xmlns:xlink="http://www.w3.org/1999/xlink">
<g id="graph0" class="graph" transform="scale(1 1) rotate(0) translate(4 1407.6)">
<title>a&#45;Fibonacci.cpp.023t.ssa</title>
<polygon fill="#ffffff" stroke="transparent" points="-4,4 -4,-1407.6 1536,-1407.6 1536,4 -4,4"/>
<g id="clust1" class="cluster">
<title>cluster_main</title>
<polygon fill="none" stroke="#000000" stroke-dasharray="5,2" points="8,-8 8,-1395.6 682,-1395.6 682,-8 8,-8"/>
<text text-anchor="middle" x="345" y="-1379" font-family="Times,serif" font-size="14.00" fill="#000000">main ()</text>
</g>
<g id="clust2" class="cluster">
<title>cluster_1731_1</title>
<polygon fill="#e0e0e0" stroke="#006400" stroke-width="2" points="16,-20.4 16,-632.8 404,-632.8 404,-20.4 16,-20.4"/>
<text text-anchor="middle" x="41.6953" y="-616.2" font-family="Times,serif" font-size="14.00" fill="#000000">loop 1</text>
</g>
<g id="clust3" class="cluster">
<title>cluster___static_initialization_and_destruction_0</title>
<polygon fill="none" stroke="#000000" stroke-dasharray="5,2" points="690,-731.1 690,-1395.6 1166,-1395.6 1166,-731.1 690,-731.1"/>
<text text-anchor="middle" x="928" y="-1379" font-family="Times,serif" font-size="14.00" fill="#000000">__static_initialization_and_destruction_0 ()</text>
</g>
<g id="clust4" class="cluster">
<title>cluster__GLOBAL__sub_I_main</title>
<polygon fill="none" stroke="#000000" stroke-dasharray="5,2" points="1174,-1053.3 1174,-1395.6 1524,-1395.6 1524,-1053.3 1174,-1053.3"/>
<text text-anchor="middle" x="1349" y="-1379" font-family="Times,serif" font-size="14.00" fill="#000000">_GLOBAL__sub_I_main ()</text>
</g>
<!-- fn_1731_basic_block_11 -->
<g id="node1" class="node">
<title>fn_1731_basic_block_11</title>
<polygon fill="#d3d3d3" stroke="#000000" points="189.562,-400.3 189.562,-599.5 396.438,-599.5 396.438,-400.3 189.562,-400.3"/>
<text text-anchor="start" x="197.562" y="-582.9" font-family="Times,serif" font-size="14.00" fill="#000000">&lt;bb 11&gt;:</text>
<polyline fill="none" stroke="#000000" points="189.562,-574.7 396.438,-574.7 "/>
<text text-anchor="start" x="197.562" y="-558.1" font-family="Times,serif" font-size="14.00" fill="#000000"># a_5 = PHI &lt;a_10(7), a_28(10)&gt;</text>
<polyline fill="none" stroke="#000000" points="189.562,-549.9 396.438,-549.9 "/>
<text text-anchor="start" x="197.562" y="-533.3" font-family="Times,serif" font-size="14.00" fill="#000000"># b_6 = PHI &lt;b_11(7), b_24(10)&gt;</text>
<polyline fill="none" stroke="#000000" points="189.562,-525.1 396.438,-525.1 "/>
<text text-anchor="start" x="197.562" y="-508.5" font-family="Times,serif" font-size="14.00" fill="#000000"># i_7 = PHI &lt;i_12(7), i_29(10)&gt;</text>
<polyline fill="none" stroke="#000000" points="189.562,-500.3 396.438,-500.3 "/>
<text text-anchor="start" x="197.562" y="-483.7" font-family="Times,serif" font-size="14.00" fill="#000000">n.0_4 = n;</text>
<polyline fill="none" stroke="#000000" points="189.562,-475.5 396.438,-475.5 "/>
<text text-anchor="start" x="197.562" y="-458.9" font-family="Times,serif" font-size="14.00" fill="#000000">if (i_7 &lt; n.0_4)</text>
<text text-anchor="start" x="197.562" y="-442.1" font-family="Times,serif" font-size="14.00" fill="#000000"> &#160;goto &lt;bb 8&gt;; [INV]</text>
<text text-anchor="start" x="197.562" y="-425.3" font-family="Times,serif" font-size="14.00" fill="#000000">else</text>
<text text-anchor="start" x="197.562" y="-408.5" font-family="Times,serif" font-size="14.00" fill="#000000"> &#160;goto &lt;bb 12&gt;; [INV]</text>
</g>
<!-- fn_1731_basic_block_8 -->
<g id="node2" class="node">
<title>fn_1731_basic_block_8</title>
<polygon fill="#d3d3d3" stroke="#000000" points="23.5555,-264.1 23.5555,-363.3 376.4445,-363.3 376.4445,-264.1 23.5555,-264.1"/>
<text text-anchor="start" x="31.5555" y="-346.7" font-family="Times,serif" font-size="14.00" fill="#000000">&lt;bb 8&gt;:</text>
<polyline fill="none" stroke="#000000" points="23.5555,-338.5 376.4445,-338.5 "/>
<text text-anchor="start" x="31.5555" y="-321.9" font-family="Times,serif" font-size="14.00" fill="#000000">t_23 = b_6;</text>
<polyline fill="none" stroke="#000000" points="23.5555,-313.7 376.4445,-313.7 "/>
<text text-anchor="start" x="31.5555" y="-297.1" font-family="Times,serif" font-size="14.00" fill="#000000">b_24 = b_6 + a_5;</text>
<polyline fill="none" stroke="#000000" points="23.5555,-288.9 376.4445,-288.9 "/>
<text text-anchor="start" x="31.5555" y="-272.3" font-family="Times,serif" font-size="14.00" fill="#000000">_26 = std::basic_ostream&lt;char&gt;::operator&lt;&lt; (&amp;cout, b_24);</text>
</g>
<!-- fn_1731_basic_block_11&#45;&gt;fn_1731_basic_block_8 -->
<g id="edge18" class="edge">
<title>fn_1731_basic_block_11:s&#45;&gt;fn_1731_basic_block_8:n</title>
<path fill="none" stroke="#000000" stroke-width="2" d="M293,-399.9C293,-359.704 216.6201,-399.0602 202.2989,-373.7803"/>
<polygon fill="#000000" stroke="#000000" stroke-width="2" points="205.636,-372.6714 200,-363.7 198.8112,-374.2279 205.636,-372.6714"/>
</g>
<!-- fn_1731_basic_block_12 -->
<g id="node13" class="node">
<title>fn_1731_basic_block_12</title>
<polygon fill="#d3d3d3" stroke="#000000" points="413.8911,-276.5 413.8911,-350.9 554.1089,-350.9 554.1089,-276.5 413.8911,-276.5"/>
<text text-anchor="start" x="421.8911" y="-334.3" font-family="Times,serif" font-size="14.00" fill="#000000">&lt;bb 12&gt;:</text>
<polyline fill="none" stroke="#000000" points="413.8911,-326.1 554.1089,-326.1 "/>
<text text-anchor="start" x="421.8911" y="-309.5" font-family="Times,serif" font-size="14.00" fill="#000000">_21 = 0;</text>
<polyline fill="none" stroke="#000000" points="413.8911,-301.3 554.1089,-301.3 "/>
<text text-anchor="start" x="421.8911" y="-284.7" font-family="Times,serif" font-size="14.00" fill="#000000">n ={v} {CLOBBER};</text>
</g>
<!-- fn_1731_basic_block_11&#45;&gt;fn_1731_basic_block_12 -->
<g id="edge19" class="edge">
<title>fn_1731_basic_block_11:s&#45;&gt;fn_1731_basic_block_12:n</title>
<path fill="none" stroke="#000000" stroke-width="2" d="M293,-399.9C293,-316.0066 467.9386,-427.9163 482.9724,-360.8497"/>
<polygon fill="#000000" stroke="#000000" stroke-width="2" points="486.4748,-361.0017 484,-350.7 479.5104,-360.2965 486.4748,-361.0017"/>
</g>
<!-- fn_1731_basic_block_9 -->
<g id="node3" class="node">
<title>fn_1731_basic_block_9</title>
<polygon fill="#d3d3d3" stroke="#000000" points="53.9481,-152.7 53.9481,-227.1 346.0519,-227.1 346.0519,-152.7 53.9481,-152.7"/>
<text text-anchor="start" x="61.9481" y="-210.5" font-family="Times,serif" font-size="14.00" fill="#000000">&lt;bb 9&gt;:</text>
<polyline fill="none" stroke="#000000" points="53.9481,-202.3 346.0519,-202.3 "/>
<text text-anchor="start" x="61.9481" y="-185.7" font-family="Times,serif" font-size="14.00" fill="#000000">_3 = _26;</text>
<polyline fill="none" stroke="#000000" points="53.9481,-177.5 346.0519,-177.5 "/>
<text text-anchor="start" x="61.9481" y="-160.9" font-family="Times,serif" font-size="14.00" fill="#000000">std::basic_ostream&lt;char&gt;::operator&lt;&lt; (_3, endl);</text>
</g>
<!-- fn_1731_basic_block_8&#45;&gt;fn_1731_basic_block_9 -->
<g id="edge14" class="edge">
<title>fn_1731_basic_block_8:s&#45;&gt;fn_1731_basic_block_9:n</title>
<path fill="none" stroke="#0000ff" stroke-width="2" d="M200,-263.7C200,-251.3056 200,-245.9556 200,-236.9733"/>
<polygon fill="#0000ff" stroke="#0000ff" stroke-width="2" points="203.5001,-236.9 200,-226.9 196.5001,-236.9 203.5001,-236.9"/>
</g>
<!-- fn_1731_basic_block_14 -->
<g id="node15" class="node">
<title>fn_1731_basic_block_14</title>
<polygon fill="#d3d3d3" stroke="#000000" points="533.8911,-16.5 533.8911,-115.7 674.1089,-115.7 674.1089,-16.5 533.8911,-16.5"/>
<text text-anchor="start" x="541.8911" y="-99.1" font-family="Times,serif" font-size="14.00" fill="#000000">&lt;bb 14&gt;:</text>
<polyline fill="none" stroke="#000000" points="533.8911,-90.9 674.1089,-90.9 "/>
<text text-anchor="start" x="541.8911" y="-74.3" font-family="Times,serif" font-size="14.00" fill="#000000">&lt;L5&gt;:</text>
<polyline fill="none" stroke="#000000" points="533.8911,-66.1 674.1089,-66.1 "/>
<text text-anchor="start" x="541.8911" y="-49.5" font-family="Times,serif" font-size="14.00" fill="#000000">n ={v} {CLOBBER};</text>
<polyline fill="none" stroke="#000000" points="533.8911,-41.3 674.1089,-41.3 "/>
<text text-anchor="start" x="541.8911" y="-24.7" font-family="Times,serif" font-size="14.00" fill="#000000">resx 1</text>
</g>
<!-- fn_1731_basic_block_8&#45;&gt;fn_1731_basic_block_14 -->
<g id="edge13" class="edge">
<title>fn_1731_basic_block_8:s&#45;&gt;fn_1731_basic_block_14:n</title>
<path fill="none" stroke="#000000" stroke-width="2" d="M200,-263.7C200,-189.4874 468.8433,-266.5711 532,-227.6 542.8345,-220.9145 588.6209,-153.6666 600.9381,-125.9155"/>
<polygon fill="#000000" stroke="#000000" stroke-width="2" points="604.3632,-126.6886 604,-116.1 597.6808,-124.604 604.3632,-126.6886"/>
</g>
<!-- fn_1731_basic_block_10 -->
<g id="node4" class="node">
<title>fn_1731_basic_block_10</title>
<polygon fill="#d3d3d3" stroke="#000000" points="150.2695,-28.9 150.2695,-103.3 249.7305,-103.3 249.7305,-28.9 150.2695,-28.9"/>
<text text-anchor="start" x="158.2695" y="-86.7" font-family="Times,serif" font-size="14.00" fill="#000000">&lt;bb 10&gt;:</text>
<polyline fill="none" stroke="#000000" points="150.2695,-78.5 249.7305,-78.5 "/>
<text text-anchor="start" x="158.2695" y="-61.9" font-family="Times,serif" font-size="14.00" fill="#000000">a_28 = t_23;</text>
<polyline fill="none" stroke="#000000" points="150.2695,-53.7 249.7305,-53.7 "/>
<text text-anchor="start" x="158.2695" y="-37.1" font-family="Times,serif" font-size="14.00" fill="#000000">i_29 = i_7 + 1;</text>
</g>
<!-- fn_1731_basic_block_9&#45;&gt;fn_1731_basic_block_10 -->
<g id="edge16" class="edge">
<title>fn_1731_basic_block_9:s&#45;&gt;fn_1731_basic_block_10:n</title>
<path fill="none" stroke="#0000ff" stroke-width="2" d="M200,-152.9C200,-134.5708 200,-127.6258 200,-113.2099"/>
<polygon fill="#0000ff" stroke="#0000ff" stroke-width="2" points="203.5001,-113.1 200,-103.1 196.5001,-113.1 203.5001,-113.1"/>
</g>
<!-- fn_1731_basic_block_9&#45;&gt;fn_1731_basic_block_14 -->
<g id="edge15" class="edge">
<title>fn_1731_basic_block_9:s&#45;&gt;fn_1731_basic_block_14:n</title>
<path fill="none" stroke="#000000" stroke-width="2" d="M200,-152.9C200,-66.4481 571.539,-194.8711 602.0168,-126.0457"/>
<polygon fill="#000000" stroke="#000000" stroke-width="2" points="605.4768,-126.5914 604,-116.1 598.612,-125.2225 605.4768,-126.5914"/>
</g>
<!-- fn_1731_basic_block_10&#45;&gt;fn_1731_basic_block_11 -->
<g id="edge17" class="edge">
<title>fn_1731_basic_block_10:s&#45;&gt;fn_1731_basic_block_11:n</title>
<path fill="none" stroke="#0000ff" stroke-width="2" stroke-dasharray="1,5" d="M200,-29.1C200,-6.9976 233.7237,-13.8586 249.7305,-29.1 263.7648,-42.4632 242.4475,-100.6412 254,-116.2 282.4093,-154.4613 322.6656,-117.1929 355,-152.2 389.7905,-189.8663 376.1523,-213.0941 385,-263.6 395.482,-323.4352 393.894,-339.1069 396.438,-399.8 396.9036,-410.9069 404.2987,-592.0393 396.438,-599.9 382.6604,-613.6776 317.9178,-620.6139 298.5112,-608.4076"/>
<polygon fill="#0000ff" stroke="#0000ff" stroke-width="2" points="301.3744,-606.39 293,-599.9 295.4994,-610.1958 301.3744,-606.39"/>
</g>
<!-- fn_1731_basic_block_0 -->
<g id="node5" class="node">
<title>fn_1731_basic_block_0</title>
<polygon fill="#ffffff" stroke="#000000" points="293,-1362.8 231.76,-1344.8 293,-1326.8 354.24,-1344.8 293,-1362.8"/>
<polyline fill="none" stroke="#000000" points="243.273,-1348.184 243.273,-1341.416 "/>
<polyline fill="none" stroke="#000000" points="281.487,-1330.184 304.513,-1330.184 "/>
<polyline fill="none" stroke="#000000" points="342.727,-1341.416 342.727,-1348.184 "/>
<polyline fill="none" stroke="#000000" points="304.513,-1359.416 281.487,-1359.416 "/>
<text text-anchor="middle" x="293" y="-1340.6" font-family="Times,serif" font-size="14.00" fill="#000000">ENTRY</text>
</g>
<!-- fn_1731_basic_block_1 -->
<g id="node6" class="node">
<title>fn_1731_basic_block_1</title>
<polygon fill="#ffffff" stroke="#000000" points="469,-84.1 422.1002,-66.1 469,-48.1 515.8998,-66.1 469,-84.1"/>
<polyline fill="none" stroke="#000000" points="433.3034,-70.3998 433.3034,-61.8002 "/>
<polyline fill="none" stroke="#000000" points="457.7968,-52.3998 480.2032,-52.3998 "/>
<polyline fill="none" stroke="#000000" points="504.6966,-61.8002 504.6966,-70.3998 "/>
<polyline fill="none" stroke="#000000" points="480.2032,-79.8002 457.7968,-79.8002 "/>
<text text-anchor="middle" x="469" y="-61.9" font-family="Times,serif" font-size="14.00" fill="#000000">EXIT</text>
</g>
<!-- fn_1731_basic_block_0&#45;&gt;fn_1731_basic_block_1 -->
<!-- fn_1731_basic_block_2 -->
<g id="node7" class="node">
<title>fn_1731_basic_block_2</title>
<polygon fill="#d3d3d3" stroke="#000000" points="144.6122,-1166.3 144.6122,-1290.3 441.3878,-1290.3 441.3878,-1166.3 144.6122,-1166.3"/>
<text text-anchor="start" x="152.6122" y="-1273.7" font-family="Times,serif" font-size="14.00" fill="#000000">&lt;bb 2&gt;:</text>
<polyline fill="none" stroke="#000000" points="144.6122,-1265.5 441.3878,-1265.5 "/>
<text text-anchor="start" x="152.6122" y="-1248.9" font-family="Times,serif" font-size="14.00" fill="#000000">a_10 = 0;</text>
<polyline fill="none" stroke="#000000" points="144.6122,-1240.7 441.3878,-1240.7 "/>
<text text-anchor="start" x="152.6122" y="-1224.1" font-family="Times,serif" font-size="14.00" fill="#000000">b_11 = 1;</text>
<polyline fill="none" stroke="#000000" points="144.6122,-1215.9 441.3878,-1215.9 "/>
<text text-anchor="start" x="152.6122" y="-1199.3" font-family="Times,serif" font-size="14.00" fill="#000000">i_12 = 1;</text>
<polyline fill="none" stroke="#000000" points="144.6122,-1191.1 441.3878,-1191.1 "/>
<text text-anchor="start" x="152.6122" y="-1174.5" font-family="Times,serif" font-size="14.00" fill="#000000">std::basic_istream&lt;char&gt;::operator&gt;&gt; (&amp;cin, &amp;n);</text>
</g>
<!-- fn_1731_basic_block_0&#45;&gt;fn_1731_basic_block_2 -->
<g id="edge1" class="edge">
<title>fn_1731_basic_block_0:s&#45;&gt;fn_1731_basic_block_2:n</title>
<path fill="none" stroke="#0000ff" stroke-width="2" d="M293,-1326.8C293,-1314.6333 293,-1309.3104 293,-1300.5656"/>
<polygon fill="#0000ff" stroke="#0000ff" stroke-width="2" points="296.5001,-1300.3 293,-1290.3 289.5001,-1300.3 296.5001,-1300.3"/>
</g>
<!-- fn_1731_basic_block_3 -->
<g id="node8" class="node">
<title>fn_1731_basic_block_3</title>
<polygon fill="#d3d3d3" stroke="#000000" points="116.9482,-1054.5 116.9482,-1104.1 469.0518,-1104.1 469.0518,-1054.5 116.9482,-1054.5"/>
<text text-anchor="start" x="124.9482" y="-1087.5" font-family="Times,serif" font-size="14.00" fill="#000000">&lt;bb 3&gt;:</text>
<polyline fill="none" stroke="#000000" points="116.9482,-1079.3 469.0518,-1079.3 "/>
<text text-anchor="start" x="124.9482" y="-1062.7" font-family="Times,serif" font-size="14.00" fill="#000000">_16 = std::basic_ostream&lt;char&gt;::operator&lt;&lt; (&amp;cout, a_10);</text>
</g>
<!-- fn_1731_basic_block_2&#45;&gt;fn_1731_basic_block_3 -->
<g id="edge3" class="edge">
<title>fn_1731_basic_block_2:s&#45;&gt;fn_1731_basic_block_3:n</title>
<path fill="none" stroke="#0000ff" stroke-width="2" d="M293,-1166.3C293,-1142.5118 293,-1134.1255 293,-1114.5488"/>
<polygon fill="#0000ff" stroke="#0000ff" stroke-width="2" points="296.5001,-1114.3 293,-1104.3 289.5001,-1114.3 296.5001,-1114.3"/>
</g>
<!-- fn_1731_basic_block_2&#45;&gt;fn_1731_basic_block_14 -->
<g id="edge2" class="edge">
<title>fn_1731_basic_block_2:s&#45;&gt;fn_1731_basic_block_14:n</title>
<path fill="none" stroke="#000000" stroke-width="2" d="M293,-1166.3C293,-1124.3964 440.502,-1148.5032 478,-1129.8 582.1269,-1077.8638 673,-1071.4605 673,-955.1 673,-955.1 673,-955.1 673,-313.7 673,-240.4391 674.6584,-216.7442 640,-152.2 631.2904,-135.9802 612.9683,-137.2443 606.4037,-126.1349"/>
<polygon fill="#000000" stroke="#000000" stroke-width="2" points="609.7332,-125.0096 604,-116.1 602.9258,-126.6402 609.7332,-125.0096"/>
</g>
<!-- fn_1731_basic_block_4 -->
<g id="node9" class="node">
<title>fn_1731_basic_block_4</title>
<polygon fill="#d3d3d3" stroke="#000000" points="146.9481,-917.9 146.9481,-992.3 439.0519,-992.3 439.0519,-917.9 146.9481,-917.9"/>
<text text-anchor="start" x="154.9481" y="-975.7" font-family="Times,serif" font-size="14.00" fill="#000000">&lt;bb 4&gt;:</text>
<polyline fill="none" stroke="#000000" points="146.9481,-967.5 439.0519,-967.5 "/>
<text text-anchor="start" x="154.9481" y="-950.9" font-family="Times,serif" font-size="14.00" fill="#000000">_1 = _16;</text>
<polyline fill="none" stroke="#000000" points="146.9481,-942.7 439.0519,-942.7 "/>
<text text-anchor="start" x="154.9481" y="-926.1" font-family="Times,serif" font-size="14.00" fill="#000000">std::basic_ostream&lt;char&gt;::operator&lt;&lt; (_1, endl);</text>
</g>
<!-- fn_1731_basic_block_3&#45;&gt;fn_1731_basic_block_4 -->
<g id="edge5" class="edge">
<title>fn_1731_basic_block_3:s&#45;&gt;fn_1731_basic_block_4:n</title>
<path fill="none" stroke="#0000ff" stroke-width="2" d="M293,-1054.3C293,-1030.3271 293,-1021.9459 293,-1002.1146"/>
<polygon fill="#0000ff" stroke="#0000ff" stroke-width="2" points="296.5001,-1002.1 293,-992.1 289.5001,-1002.1 296.5001,-1002.1"/>
</g>
<!-- fn_1731_basic_block_3&#45;&gt;fn_1731_basic_block_14 -->
<g id="edge4" class="edge">
<title>fn_1731_basic_block_3:s&#45;&gt;fn_1731_basic_block_14:n</title>
<path fill="none" stroke="#000000" stroke-width="2" d="M293,-1054.3C293,-980.1866 382.362,-1027.2157 448,-992.8 544.9869,-941.9472 653,-965.6101 653,-856.1 653,-856.1 653,-856.1 653,-313.7 653,-240.7742 648.4433,-220.9073 624,-152.2 619.2449,-138.8341 609.8813,-135.5208 605.8824,-126.219"/>
<polygon fill="#000000" stroke="#000000" stroke-width="2" points="609.2699,-125.2912 604,-116.1 602.388,-126.5715 609.2699,-125.2912"/>
</g>
<!-- fn_1731_basic_block_5 -->
<g id="node10" class="node">
<title>fn_1731_basic_block_5</title>
<polygon fill="#d3d3d3" stroke="#000000" points="116.5555,-831.3 116.5555,-880.9 469.4445,-880.9 469.4445,-831.3 116.5555,-831.3"/>
<text text-anchor="start" x="124.5555" y="-864.3" font-family="Times,serif" font-size="14.00" fill="#000000">&lt;bb 5&gt;:</text>
<polyline fill="none" stroke="#000000" points="116.5555,-856.1 469.4445,-856.1 "/>
<text text-anchor="start" x="124.5555" y="-839.5" font-family="Times,serif" font-size="14.00" fill="#000000">_19 = std::basic_ostream&lt;char&gt;::operator&lt;&lt; (&amp;cout, b_11);</text>
</g>
<!-- fn_1731_basic_block_4&#45;&gt;fn_1731_basic_block_5 -->
<g id="edge7" class="edge">
<title>fn_1731_basic_block_4:s&#45;&gt;fn_1731_basic_block_5:n</title>
<path fill="none" stroke="#0000ff" stroke-width="2" d="M293,-918.1C293,-905.6382 293,-900.2592 293,-891.2281"/>
<polygon fill="#0000ff" stroke="#0000ff" stroke-width="2" points="296.5001,-891.1 293,-881.1 289.5001,-891.1 296.5001,-891.1"/>
</g>
<!-- fn_1731_basic_block_4&#45;&gt;fn_1731_basic_block_14 -->
<g id="edge6" class="edge">
<title>fn_1731_basic_block_4:s&#45;&gt;fn_1731_basic_block_14:n</title>
<path fill="none" stroke="#000000" stroke-width="2" d="M293,-918.1C293,-876.1878 440.0066,-899.0956 478,-881.4 558.0477,-844.1174 633,-845.4042 633,-757.1 633,-757.1 633,-757.1 633,-313.7 633,-241.318 624.5092,-223.4929 612,-152.2 609.8477,-139.9337 606.3633,-134.9646 604.8017,-126.1252"/>
<polygon fill="#000000" stroke="#000000" stroke-width="2" points="608.2861,-125.7891 604,-116.1 601.3084,-126.3472 608.2861,-125.7891"/>
</g>
<!-- fn_1731_basic_block_6 -->
<g id="node11" class="node">
<title>fn_1731_basic_block_6</title>
<polygon fill="#d3d3d3" stroke="#000000" points="146.9481,-719.9 146.9481,-794.3 439.0519,-794.3 439.0519,-719.9 146.9481,-719.9"/>
<text text-anchor="start" x="154.9481" y="-777.7" font-family="Times,serif" font-size="14.00" fill="#000000">&lt;bb 6&gt;:</text>
<polyline fill="none" stroke="#000000" points="146.9481,-769.5 439.0519,-769.5 "/>
<text text-anchor="start" x="154.9481" y="-752.9" font-family="Times,serif" font-size="14.00" fill="#000000">_2 = _19;</text>
<polyline fill="none" stroke="#000000" points="146.9481,-744.7 439.0519,-744.7 "/>
<text text-anchor="start" x="154.9481" y="-728.1" font-family="Times,serif" font-size="14.00" fill="#000000">std::basic_ostream&lt;char&gt;::operator&lt;&lt; (_2, endl);</text>
</g>
<!-- fn_1731_basic_block_5&#45;&gt;fn_1731_basic_block_6 -->
<g id="edge9" class="edge">
<title>fn_1731_basic_block_5:s&#45;&gt;fn_1731_basic_block_6:n</title>
<path fill="none" stroke="#0000ff" stroke-width="2" d="M293,-831.1C293,-818.6382 293,-813.2592 293,-804.2281"/>
<polygon fill="#0000ff" stroke="#0000ff" stroke-width="2" points="296.5001,-804.1 293,-794.1 289.5001,-804.1 296.5001,-804.1"/>
</g>
<!-- fn_1731_basic_block_5&#45;&gt;fn_1731_basic_block_14 -->
<g id="edge8" class="edge">
<title>fn_1731_basic_block_5:s&#45;&gt;fn_1731_basic_block_14:n</title>
<path fill="none" stroke="#000000" stroke-width="2" d="M293,-831.1C293,-760.3472 384.4047,-825.8096 448,-794.8 532.5871,-753.5546 613,-756.2072 613,-662.1 613,-662.1 613,-662.1 613,-313.7 613,-272.8341 605.2211,-175.1564 604.1272,-126.3013"/>
<polygon fill="#000000" stroke="#000000" stroke-width="2" points="607.6245,-126.0555 604,-116.1 600.6251,-126.1429 607.6245,-126.0555"/>
</g>
<!-- fn_1731_basic_block_7 -->
<g id="node12" class="node">
<title>fn_1731_basic_block_7</title>
<polygon fill="#d3d3d3" stroke="#000000" points="226.3673,-641.3 226.3673,-682.9 359.6327,-682.9 359.6327,-641.3 226.3673,-641.3"/>
<text text-anchor="start" x="234.3673" y="-666.3" font-family="Times,serif" font-size="14.00" fill="#000000">&lt;bb 7&gt;:</text>
<text text-anchor="start" x="234.3673" y="-649.5" font-family="Times,serif" font-size="14.00" fill="#000000">goto &lt;bb 11&gt;; [INV]</text>
</g>
<!-- fn_1731_basic_block_6&#45;&gt;fn_1731_basic_block_7 -->
<g id="edge11" class="edge">
<title>fn_1731_basic_block_6:s&#45;&gt;fn_1731_basic_block_7:n</title>
<path fill="none" stroke="#0000ff" stroke-width="2" d="M293,-720.1C293,-707.6382 293,-702.2592 293,-693.2281"/>
<polygon fill="#0000ff" stroke="#0000ff" stroke-width="2" points="296.5001,-693.1 293,-683.1 289.5001,-693.1 296.5001,-693.1"/>
</g>
<!-- fn_1731_basic_block_6&#45;&gt;fn_1731_basic_block_14 -->
<g id="edge10" class="edge">
<title>fn_1731_basic_block_6:s&#45;&gt;fn_1731_basic_block_14:n</title>
<path fill="none" stroke="#000000" stroke-width="2" d="M293,-720.1C293,-651.8986 381.624,-715.1203 442,-683.4 535.4995,-634.2772 593,-605.5182 593,-499.9 593,-499.9 593,-499.9 593,-313.7 593,-229.1777 603.1574,-205.8534 603.951,-126.1121"/>
<polygon fill="#000000" stroke="#000000" stroke-width="2" points="607.4509,-126.1171 604,-116.1 600.451,-126.0827 607.4509,-126.1171"/>
</g>
<!-- fn_1731_basic_block_7&#45;&gt;fn_1731_basic_block_11 -->
<g id="edge12" class="edge">
<title>fn_1731_basic_block_7:s&#45;&gt;fn_1731_basic_block_11:n</title>
<path fill="none" stroke="#0000ff" stroke-width="2" d="M293,-641.1C293,-626.6514 293,-620.7534 293,-609.9121"/>
<polygon fill="#0000ff" stroke="#0000ff" stroke-width="2" points="296.5001,-609.9 293,-599.9 289.5001,-609.9 296.5001,-609.9"/>
</g>
<!-- fn_1731_basic_block_13 -->
<g id="node14" class="node">
<title>fn_1731_basic_block_13</title>
<polygon fill="#d3d3d3" stroke="#000000" points="445.0915,-152.7 445.0915,-227.1 522.9085,-227.1 522.9085,-152.7 445.0915,-152.7"/>
<text text-anchor="start" x="453.0915" y="-210.5" font-family="Times,serif" font-size="14.00" fill="#000000">&lt;bb 13&gt;:</text>
<polyline fill="none" stroke="#000000" points="445.0915,-202.3 522.9085,-202.3 "/>
<text text-anchor="start" x="453.0915" y="-185.7" font-family="Times,serif" font-size="14.00" fill="#000000">&lt;L4&gt;:</text>
<polyline fill="none" stroke="#000000" points="445.0915,-177.5 522.9085,-177.5 "/>
<text text-anchor="start" x="453.0915" y="-160.9" font-family="Times,serif" font-size="14.00" fill="#000000">return _21;</text>
</g>
<!-- fn_1731_basic_block_12&#45;&gt;fn_1731_basic_block_13 -->
<g id="edge20" class="edge">
<title>fn_1731_basic_block_12:s&#45;&gt;fn_1731_basic_block_13:n</title>
<path fill="none" stroke="#0000ff" stroke-width="2" d="M484,-276.7C484,-258.3708 484,-251.4258 484,-237.0099"/>
<polygon fill="#0000ff" stroke="#0000ff" stroke-width="2" points="487.5001,-236.9 484,-226.9 480.5001,-236.9 487.5001,-236.9"/>
</g>
<!-- fn_1731_basic_block_13&#45;&gt;fn_1731_basic_block_1 -->
<g id="edge21" class="edge">
<title>fn_1731_basic_block_13:s&#45;&gt;fn_1731_basic_block_1:n</title>
<path fill="none" stroke="#000000" stroke-width="2" d="M484,-152.9C484,-125.2714 472.3096,-117.1956 469.5697,-94.1497"/>
<polygon fill="#000000" stroke="#000000" stroke-width="2" points="473.0605,-93.8858 469,-84.1 466.0717,-94.2821 473.0605,-93.8858"/>
</g>
<!-- fn_2231_basic_block_0 -->
<g id="node16" class="node">
<title>fn_2231_basic_block_0</title>
<polygon fill="#ffffff" stroke="#000000" points="1046,-1362.8 984.76,-1344.8 1046,-1326.8 1107.24,-1344.8 1046,-1362.8"/>
<polyline fill="none" stroke="#000000" points="996.273,-1348.184 996.273,-1341.416 "/>
<polyline fill="none" stroke="#000000" points="1034.487,-1330.184 1057.513,-1330.184 "/>
<polyline fill="none" stroke="#000000" points="1095.727,-1341.416 1095.727,-1348.184 "/>
<polyline fill="none" stroke="#000000" points="1057.513,-1359.416 1034.487,-1359.416 "/>
<text text-anchor="middle" x="1046" y="-1340.6" font-family="Times,serif" font-size="14.00" fill="#000000">ENTRY</text>
</g>
<!-- fn_2231_basic_block_1 -->
<g id="node17" class="node">
<title>fn_2231_basic_block_1</title>
<polygon fill="#ffffff" stroke="#000000" points="918,-775.1 871.1002,-757.1 918,-739.1 964.8998,-757.1 918,-775.1"/>
<polyline fill="none" stroke="#000000" points="882.3034,-761.3998 882.3034,-752.8002 "/>
<polyline fill="none" stroke="#000000" points="906.7968,-743.3998 929.2032,-743.3998 "/>
<polyline fill="none" stroke="#000000" points="953.6966,-752.8002 953.6966,-761.3998 "/>
<polyline fill="none" stroke="#000000" points="929.2032,-770.8002 906.7968,-770.8002 "/>
<text text-anchor="middle" x="918" y="-752.9" font-family="Times,serif" font-size="14.00" fill="#000000">EXIT</text>
</g>
<!-- fn_2231_basic_block_0&#45;&gt;fn_2231_basic_block_1 -->
<!-- fn_2231_basic_block_2 -->
<g id="node18" class="node">
<title>fn_2231_basic_block_2</title>
<polygon fill="#d3d3d3" stroke="#000000" points="957.2116,-1178.3 957.2116,-1278.3 1134.7884,-1278.3 1134.7884,-1178.3 957.2116,-1178.3"/>
<text text-anchor="start" x="965.2116" y="-1261.7" font-family="Times,serif" font-size="14.00" fill="#000000">&lt;bb 2&gt;:</text>
<polyline fill="none" stroke="#000000" points="957.2116,-1253.5 1134.7884,-1253.5 "/>
<text text-anchor="start" x="965.2116" y="-1236.9" font-family="Times,serif" font-size="14.00" fill="#000000">if (__initialize_p_2(D) == 1)</text>
<text text-anchor="start" x="965.2116" y="-1220.1" font-family="Times,serif" font-size="14.00" fill="#000000"> &#160;goto &lt;bb 3&gt;; [INV]</text>
<text text-anchor="start" x="965.2116" y="-1203.3" font-family="Times,serif" font-size="14.00" fill="#000000">else</text>
<text text-anchor="start" x="965.2116" y="-1186.5" font-family="Times,serif" font-size="14.00" fill="#000000"> &#160;goto &lt;bb 5&gt;; [INV]</text>
</g>
<!-- fn_2231_basic_block_0&#45;&gt;fn_2231_basic_block_2 -->
<g id="edge23" class="edge">
<title>fn_2231_basic_block_0:s&#45;&gt;fn_2231_basic_block_2:n</title>
<path fill="none" stroke="#0000ff" stroke-width="2" d="M1046,-1326.8C1046,-1309.1177 1046,-1302.3142 1046,-1288.5414"/>
<polygon fill="#0000ff" stroke="#0000ff" stroke-width="2" points="1049.5001,-1288.3 1046,-1278.3 1042.5001,-1288.3 1049.5001,-1288.3"/>
</g>
<!-- fn_2231_basic_block_3 -->
<g id="node19" class="node">
<title>fn_2231_basic_block_3</title>
<polygon fill="#d3d3d3" stroke="#000000" points="953.7088,-1029.3 953.7088,-1129.3 1138.2912,-1129.3 1138.2912,-1029.3 953.7088,-1029.3"/>
<text text-anchor="start" x="961.7088" y="-1112.7" font-family="Times,serif" font-size="14.00" fill="#000000">&lt;bb 3&gt;:</text>
<polyline fill="none" stroke="#000000" points="953.7088,-1104.5 1138.2912,-1104.5 "/>
<text text-anchor="start" x="961.7088" y="-1087.9" font-family="Times,serif" font-size="14.00" fill="#000000">if (__priority_4(D) == 65535)</text>
<text text-anchor="start" x="961.7088" y="-1071.1" font-family="Times,serif" font-size="14.00" fill="#000000"> &#160;goto &lt;bb 4&gt;; [INV]</text>
<text text-anchor="start" x="961.7088" y="-1054.3" font-family="Times,serif" font-size="14.00" fill="#000000">else</text>
<text text-anchor="start" x="961.7088" y="-1037.5" font-family="Times,serif" font-size="14.00" fill="#000000"> &#160;goto &lt;bb 5&gt;; [INV]</text>
</g>
<!-- fn_2231_basic_block_2&#45;&gt;fn_2231_basic_block_3 -->
<g id="edge24" class="edge">
<title>fn_2231_basic_block_2:s&#45;&gt;fn_2231_basic_block_3:n</title>
<path fill="none" stroke="#000000" stroke-width="2" d="M1046,-1178.3C1046,-1160.4354 1046,-1153.5617 1046,-1139.647"/>
<polygon fill="#000000" stroke="#000000" stroke-width="2" points="1049.5001,-1139.3 1046,-1129.3 1042.5001,-1139.3 1049.5001,-1139.3"/>
</g>
<!-- fn_2231_basic_block_5 -->
<g id="node21" class="node">
<title>fn_2231_basic_block_5</title>
<polygon fill="#d3d3d3" stroke="#000000" points="887.9101,-831.3 887.9101,-880.9 948.0899,-880.9 948.0899,-831.3 887.9101,-831.3"/>
<text text-anchor="start" x="895.9101" y="-864.3" font-family="Times,serif" font-size="14.00" fill="#000000">&lt;bb 5&gt;:</text>
<polyline fill="none" stroke="#000000" points="887.9101,-856.1 948.0899,-856.1 "/>
<text text-anchor="start" x="895.9101" y="-839.5" font-family="Times,serif" font-size="14.00" fill="#000000">return;</text>
</g>
<!-- fn_2231_basic_block_2&#45;&gt;fn_2231_basic_block_5 -->
<g id="edge25" class="edge">
<title>fn_2231_basic_block_2:s&#45;&gt;fn_2231_basic_block_5:n</title>
<path fill="none" stroke="#000000" stroke-width="2" d="M1046,-1178.3C1046,-1128.5039 1120.4833,-1171.9488 1147,-1129.8 1172.1521,-1089.8203 1170.8435,-952.2854 1139,-917.4 1108.0683,-883.5135 946.3493,-923.5521 921.2695,-891.0228"/>
<polygon fill="#000000" stroke="#000000" stroke-width="2" points="924.4537,-889.5024 918,-881.1 917.8053,-891.693 924.4537,-889.5024"/>
</g>
<!-- fn_2231_basic_block_4 -->
<g id="node20" class="node">
<title>fn_2231_basic_block_4</title>
<polygon fill="#d3d3d3" stroke="#000000" points="717.5266,-917.9 717.5266,-992.3 1118.4734,-992.3 1118.4734,-917.9 717.5266,-917.9"/>
<text text-anchor="start" x="725.5266" y="-975.7" font-family="Times,serif" font-size="14.00" fill="#000000">&lt;bb 4&gt;:</text>
<polyline fill="none" stroke="#000000" points="717.5266,-967.5 1118.4734,-967.5 "/>
<text text-anchor="start" x="725.5266" y="-950.9" font-family="Times,serif" font-size="14.00" fill="#000000">std::ios_base::Init::Init (&amp;__ioinit);</text>
<polyline fill="none" stroke="#000000" points="717.5266,-942.7 1118.4734,-942.7 "/>
<text text-anchor="start" x="725.5266" y="-926.1" font-family="Times,serif" font-size="14.00" fill="#000000">__cxxabiv1::__cxa_atexit (__dt_comp , &amp;__ioinit, &amp;__dso_handle);</text>
</g>
<!-- fn_2231_basic_block_3&#45;&gt;fn_2231_basic_block_4 -->
<g id="edge26" class="edge">
<title>fn_2231_basic_block_3:s&#45;&gt;fn_2231_basic_block_4:n</title>
<path fill="none" stroke="#000000" stroke-width="2" d="M1046,-1029.3C1046,-973.9914 934.4355,-1041.1667 919.6184,-1002.1255"/>
<polygon fill="#000000" stroke="#000000" stroke-width="2" points="923.049,-1001.4144 918,-992.1 916.1385,-1002.53 923.049,-1001.4144"/>
</g>
<!-- fn_2231_basic_block_3&#45;&gt;fn_2231_basic_block_5 -->
<g id="edge27" class="edge">
<title>fn_2231_basic_block_3:s&#45;&gt;fn_2231_basic_block_5:n</title>
<path fill="none" stroke="#000000" stroke-width="2" d="M1046,-1029.3C1046,-989.8138 1105.5686,-1025.9641 1127,-992.8 1145.1883,-964.6543 1148.5734,-943.0434 1127,-917.4 1068.6766,-848.0736 929.4527,-965.5222 918.6648,-891.1466"/>
<polygon fill="#000000" stroke="#000000" stroke-width="2" points="922.1528,-890.847 918,-881.1 915.168,-891.3093 922.1528,-890.847"/>
</g>
<!-- fn_2231_basic_block_4&#45;&gt;fn_2231_basic_block_5 -->
<g id="edge28" class="edge">
<title>fn_2231_basic_block_4:s&#45;&gt;fn_2231_basic_block_5:n</title>
<path fill="none" stroke="#0000ff" stroke-width="2" d="M918,-918.1C918,-905.6382 918,-900.2592 918,-891.2281"/>
<polygon fill="#0000ff" stroke="#0000ff" stroke-width="2" points="921.5001,-891.1 918,-881.1 914.5001,-891.1 921.5001,-891.1"/>
</g>
<!-- fn_2231_basic_block_5&#45;&gt;fn_2231_basic_block_1 -->
<g id="edge29" class="edge">
<title>fn_2231_basic_block_5:s&#45;&gt;fn_2231_basic_block_1:n</title>
<path fill="none" stroke="#000000" stroke-width="2" d="M918,-831.1C918,-810.1 918,-802.3891 918,-785.5419"/>
<polygon fill="#000000" stroke="#000000" stroke-width="2" points="921.5001,-785.1 918,-775.1 914.5001,-785.1 921.5001,-785.1"/>
</g>
<!-- fn_2232_basic_block_0 -->
<g id="node22" class="node">
<title>fn_2232_basic_block_0</title>
<polygon fill="#ffffff" stroke="#000000" points="1359,-1362.8 1297.76,-1344.8 1359,-1326.8 1420.24,-1344.8 1359,-1362.8"/>
<polyline fill="none" stroke="#000000" points="1309.273,-1348.184 1309.273,-1341.416 "/>
<polyline fill="none" stroke="#000000" points="1347.487,-1330.184 1370.513,-1330.184 "/>
<polyline fill="none" stroke="#000000" points="1408.727,-1341.416 1408.727,-1348.184 "/>
<polyline fill="none" stroke="#000000" points="1370.513,-1359.416 1347.487,-1359.416 "/>
<text text-anchor="middle" x="1359" y="-1340.6" font-family="Times,serif" font-size="14.00" fill="#000000">ENTRY</text>
</g>
<!-- fn_2232_basic_block_1 -->
<g id="node23" class="node">
<title>fn_2232_basic_block_1</title>
<polygon fill="#ffffff" stroke="#000000" points="1359,-1097.3 1312.1002,-1079.3 1359,-1061.3 1405.8998,-1079.3 1359,-1097.3"/>
<polyline fill="none" stroke="#000000" points="1323.3034,-1083.5998 1323.3034,-1075.0002 "/>
<polyline fill="none" stroke="#000000" points="1347.7968,-1065.5998 1370.2032,-1065.5998 "/>
<polyline fill="none" stroke="#000000" points="1394.6966,-1075.0002 1394.6966,-1083.5998 "/>
<polyline fill="none" stroke="#000000" points="1370.2032,-1093.0002 1347.7968,-1093.0002 "/>
<text text-anchor="middle" x="1359" y="-1075.1" font-family="Times,serif" font-size="14.00" fill="#000000">EXIT</text>
</g>
<!-- fn_2232_basic_block_0&#45;&gt;fn_2232_basic_block_1 -->
<!-- fn_2232_basic_block_2 -->
<g id="node24" class="node">
<title>fn_2232_basic_block_2</title>
<polygon fill="#d3d3d3" stroke="#000000" points="1202.2766,-1191.1 1202.2766,-1265.5 1515.7234,-1265.5 1515.7234,-1191.1 1202.2766,-1191.1"/>
<text text-anchor="start" x="1210.2766" y="-1248.9" font-family="Times,serif" font-size="14.00" fill="#000000">&lt;bb 2&gt;:</text>
<polyline fill="none" stroke="#000000" points="1202.2766,-1240.7 1515.7234,-1240.7 "/>
<text text-anchor="start" x="1210.2766" y="-1224.1" font-family="Times,serif" font-size="14.00" fill="#000000">__static_initialization_and_destruction_0 (1, 65535);</text>
<polyline fill="none" stroke="#000000" points="1202.2766,-1215.9 1515.7234,-1215.9 "/>
<text text-anchor="start" x="1210.2766" y="-1199.3" font-family="Times,serif" font-size="14.00" fill="#000000">return;</text>
</g>
<!-- fn_2232_basic_block_0&#45;&gt;fn_2232_basic_block_2 -->
<g id="edge31" class="edge">
<title>fn_2232_basic_block_0:s&#45;&gt;fn_2232_basic_block_2:n</title>
<path fill="none" stroke="#0000ff" stroke-width="2" d="M1359,-1326.8C1359,-1303.2036 1359,-1294.885 1359,-1275.4662"/>
<polygon fill="#0000ff" stroke="#0000ff" stroke-width="2" points="1362.5001,-1275.3 1359,-1265.3 1355.5001,-1275.3 1362.5001,-1275.3"/>
</g>
<!-- fn_2232_basic_block_2&#45;&gt;fn_2232_basic_block_1 -->
<g id="edge32" class="edge">
<title>fn_2232_basic_block_2:s&#45;&gt;fn_2232_basic_block_1:n</title>
<path fill="none" stroke="#000000" stroke-width="2" d="M1359,-1191.3C1359,-1153.1125 1359,-1141.1043 1359,-1107.4164"/>
<polygon fill="#000000" stroke="#000000" stroke-width="2" points="1362.5001,-1107.3 1359,-1097.3 1355.5001,-1107.3 1362.5001,-1107.3"/>
</g>
</g>
</svg>
